<?xml version="1.0" encoding="iso-8859-1" standalone="no"?> 
<?xml-stylesheet href="template.css" type="text/css"?> 
<svg xmlns="http://www.w3.org/2000/svg" xmlns:xlink="http://www.w3.org/1999/xlink" width="71.76999pt" height="56.82986pt" viewBox="-35.885 -48.61368 71.76999 56.82986 "> 
<g transform="translate(0, 8.21619 ) scale(1,-1) translate(0,48.61368 )"> 
         <g> 
 <g stroke="rgb(0.0%,0.0%,0.0%)"> 
 <g fill="rgb(0.0%,0.0%,0.0%)"> 
 <g stroke-width="0.4pt"> 
 <g> 
 <g> 
 <g> 
 <g transform="matrix(1.0,0.0,0.0,1.0,0.0,-4.09999)"> 
 <g fill="rgb(0.0%,0.0%,0.0%)"> 
 <text style="stroke:none" transform="scale(1,-1) translate(0.0,0)" text-anchor="middle"  font-size="12"> 
</text> 
</g> 
 </g> 
 </g> 
 </g> 
 <path d="  " style="fill:none"/> 
 <g> 
 <g stroke="rgb(0.0%,0.0%,0.0%)"> 
 <g fill="rgb(100.0%,50.0%,0.0%)"> 
 <g stroke-width="0.5pt"> 
 <g> 
 <g stroke="rgb(0.0%,0.0%,0.0%)"> 
 <g fill="rgb(100.0%,50.0%,0.0%)"> 
 <g stroke-width="0.5pt"> 
 <path d=" M  31.635 7.96619 L  -31.635 7.96619 C  -33.84416 7.96619 -35.635 6.17535 -35.635 3.96619 L  -35.635 -44.36368 C  -35.635 -46.57285 -33.84416 -48.36368 -31.635 -48.36368 L  31.635 -48.36368 C  33.84416 -48.36368 35.635 -46.57285 35.635 -44.36368 L  35.635 3.96619 C  35.635 6.17535 33.84416 7.96619 31.635 7.96619 Z M  -35.635 -48.36368  " /> 
 </g> 
 </g> 
 </g> 
 </g> 
 <g> 
 <g transform="matrix(1.0,0.0,0.0,1.0,-31.50165,-44.23033)"> 
 <g fill="rgb(0.0%,0.0%,0.0%)"> 
 <text style="stroke:none" transform="scale(1,-1) translate(31.50165,0)" text-anchor="middle"  font-size="12"> 
         Check
if it is ok
this as bold</text> 
</g> 
 </g> 
 </g> 
 </g> 
 </g> 
 </g> 
 </g> 
 <path d="  " style="fill:none"/> 
 <g> 
 <g stroke="rgb(0.0%,0.0%,0.0%)"> 
 <g fill="rgb(100.0%,50.0%,0.0%)"> 
 <g stroke-width="0.5pt"> 
 <g> 
 <g stroke="rgb(0.0%,0.0%,0.0%)"> 
 <g fill="rgb(100.0%,50.0%,0.0%)"> 
 <g stroke-width="0.5pt"> 
 <path d=" M  31.635 7.96619 L  -31.635 7.96619 C  -33.84416 7.96619 -35.635 6.17535 -35.635 3.96619 L  -35.635 -44.36368 C  -35.635 -46.57285 -33.84416 -48.36368 -31.635 -48.36368 L  31.635 -48.36368 C  33.84416 -48.36368 35.635 -46.57285 35.635 -44.36368 L  35.635 3.96619 C  35.635 6.17535 33.84416 7.96619 31.635 7.96619 Z M  -35.635 -48.36368  " /> 
 </g> 
 </g> 
 </g> 
 </g> 
 <g> 
 <g transform="matrix(1.0,0.0,0.0,1.0,-31.50165,-44.23033)"> 
 <g fill="rgb(0.0%,0.0%,0.0%)"> 
 <text style="stroke:none" transform="scale(1,-1) translate(31.50165,0)" text-anchor="middle"  font-size="12"> 
 Check
if it is ok
this as bold</text> 
</g> 
 </g> 
 </g> 
 </g> 
 </g> 
 </g> 
 </g> 
 </g> 
 </g> 
 </g> 
 </g> 
 </g> 
  </g> 
</svg> 
